:SAMPLES-PER-SECOND 30
:FULLY-SPECIFIED
:DEGREES
1
root  9.01216 40.8905 0.922688 -174.034 -84.9764 172.019
RightUpLeg  0.523821 -8.56895 -6.54985
RightLeg  5.27527 -2.90184 3.03729
RightFoot  -2.66955 -0.0100521 -0.142154
RightToes  0.000482159 0.542163 -0.142577
Spine  1.25845 0.279223 -2.38287
Spine1  3.23909 0.107216 1.17096
HEad  1.39129 -9.33734 -1.33457
LeftShoulder1  0.774047 -1.78623 -6.8886
LeftArm  -20.1025 14.1454 -8.36528
LeftForeArm  3.8661 -1.19992 -0.321945
LeftHand  -0.25398 0.0180481 5.50724
RightShoulder  0.691422 1.12339 7.60716
RightArm  -19.6696 -4.71203 3.17348
RightForeArm  7.85816 3.9981 2.84975
RightHand  -1.21947 4.87543 -14.089
LeftUpLeg  2.3608 5.5979 2.94179
LeftLeg  3.51476 14.7277 -3.56845
LeftFoot  -3.67123 -0.0362849 1.02412
LeftToes  1.06248e-005 4.65854e-005 -8.185e-006
2
root  8.99822 40.8905 0.928708 -174.158 -84.9405 172.156
RightUpLeg  0.510969 -8.56397 -6.54954
RightLeg  5.30883 -2.86136 3.03218
RightFoot  -2.67519 -0.0118157 -0.114769
RightToes  0.000482159 0.542163 -0.142577
Spine  1.29552 0.289843 -2.37329
Spine1  3.19682 0.122097 1.15526
HEad  1.41557 -9.31729 -1.2943
LeftShoulder1  0.773497 -1.80059 -6.88459
LeftArm  -20.2104 14.1211 -8.37555
LeftForeArm  4.11112 -1.17913 -0.265434
LeftHand  -0.25398 0.0180481 5.50724
RightShoulder  0.6914 1.09897 7.55878
RightArm  -19.6728 -4.71078 3.22091
RightForeArm  8.03185 3.98611 2.83689
RightHand  -1.20112 4.81944 -13.956
LeftUpLeg  2.37431 5.60338 2.94175
LeftLeg  3.5139 14.7529 -3.57184
LeftFoot  -3.68339 -0.0344502 0.995603
LeftToes  1.06248e-005 4.65854e-005 -8.185e-006
3
root  8.97225 40.8905 0.938616 -174.383 -84.8681 172.391
RightUpLeg  0.520788 -8.54978 -6.5469
RightLeg  5.32374 -2.79322 3.02359
RightFoot  -2.68434 -0.0140561 -0.0799805
RightToes  0.000482159 0.542163 -0.142577
Spine  1.39139 0.300139 -2.33785
Spine1  3.10425 0.147467 1.08226
HEad  1.44416 -9.31704 -1.17246
LeftShoulder1  0.769641 -1.7774 -6.86564
LeftArm  -20.2801 14.0487 -8.39454
LeftForeArm  4.47469 -1.11688 -0.218114
LeftHand  -0.25398 0.0180481 5.50724
RightShoulder  0.69246 1.08287 7.54319
RightArm  -19.6032 -4.68773 3.23674
RightForeArm  8.2427 3.95285 2.84295
RightHand  -1.18445 4.79995 -13.7943
LeftUpLeg  2.41396 5.60805 2.94413
LeftLeg  3.51077 14.8178 -3.58053
LeftFoot  -3.70409 -0.0325798 0.96653
LeftToes  1.06248e-005 4.65854e-005 -8.185e-006
4
root  8.94467 40.8905 0.945204 -174.714 -84.8065 172.721
RightUpLeg  0.562147 -8.53251 -6.53586
RightLeg  5.30899 -2.74347 3.01912
RightFoot  -2.68238 -0.0144738 -0.0734955
RightToes  0.000482159 0.542163 -0.142577
Spine  1.49891 0.290147 -2.32238
Spine1  3.00724 0.14431 1.04226
HEad  1.4538 -9.37229 -1.08725
LeftShoulder1  0.759984 -1.72272 -6.82816
LeftArm  -20.2196 14.0295 -8.44561
LeftForeArm  4.63659 -1.05116 -0.227762
LeftHand  -0.25398 0.0180481 5.50724
RightShoulder  0.699919 1.13507 7.55083
RightArm  -19.5043 -4.66944 3.21015
RightForeArm  8.29659 3.9172 2.86575
RightHand  -1.19711 4.89554 -13.8142
LeftUpLeg  2.47275 5.62921 2.96467
LeftLeg  3.50314 14.8593 -3.59115
LeftFoot  -3.73336 -0.031968 0.957021
LeftToes  1.06248e-005 4.65854e-005 -8.185e-006
5
root  8.91996 40.8905 0.94943 -175.083 -84.7757 173.079
RightUpLeg  0.626775 -8.52846 -6.52202
RightLeg  5.27574 -2.71469 3.02723
RightFoot  -2.66927 -0.0132525 -0.0924591
RightToes  0.000482159 0.542163 -0.142577
Spine  1.59441 0.262206 -2.34015
Spine1  2.9312 0.110187 1.06215
HEad  1.44126 -9.43741 -1.12946
LeftShoulder1  0.747449 -1.66523 -6.73654
LeftArm  -20.1259 14.1171 -8.56813
LeftForeArm  4.59087 -1.04078 -0.261346
LeftHand  -0.25398 0.0180481 5.50724
RightShoulder  0.717461 1.24842 7.56169
RightArm  -19.4582 -4.68988 3.1641
RightForeArm  8.10711 3.91888 2.88707
RightHand  -1.21305 4.91458 -13.9679
LeftUpLeg  2.53732 5.66443 3.00107
LeftLeg  3.4921 14.855 -3.6101
LeftFoot  -3.77358 -0.0324363 0.964299
LeftToes  1.06248e-005 4.65854e-005 -8.185e-006
6
root  8.89703 40.8905 0.956708 -175.311 -84.7447 173.305
RightUpLeg  0.681153 -8.54077 -6.53083
RightLeg  5.2351 -2.66925 3.04649
RightFoot  -2.66986 -0.0119505 -0.112676
RightToes  0.000482159 0.542163 -0.142577
Spine  1.68298 0.239962 -2.34635
Spine1  2.86495 0.0892222 1.04531
HEad  1.45672 -9.45521 -1.23053
LeftShoulder1  0.735754 -1.61866 -6.62747
LeftArm  -20.0743 14.2178 -8.68307
LeftForeArm  4.51473 -1.08379 -0.28762
LeftHand  -0.25398 0.0180481 5.50724
RightShoulder  0.733663 1.33911 7.62038
RightArm  -19.4683 -4.70321 3.08537
RightForeArm  7.80544 3.93794 2.89867
RightHand  -1.1871 4.6463 -14.0225
LeftUpLeg  2.58116 5.68503 3.01476
LeftLeg  3.49498 14.869 -3.62168
LeftFoot  -3.82206 -0.0342876 0.993075
LeftToes  1.06248e-005 4.65854e-005 -8.185e-006
7
root  8.87412 40.8905 0.966783 -175.346 -84.6827 173.367
RightUpLeg  0.683067 -8.55447 -6.55625
RightLeg  5.21896 -2.58889 3.05739
RightFoot  -2.69388 -0.0112959 -0.122841
RightToes  0.000482159 0.542163 -0.142577
Spine  1.76965 0.239117 -2.33443
Spine1  2.78432 0.101235 0.974413
HEad  1.5551 -9.43907 -1.29652
LeftShoulder1  0.734389 -1.60683 -6.63441
LeftArm  -20.0281 14.2555 -8.64236
LeftForeArm  4.46034 -1.12366 -0.309481
LeftHand  -0.25398 0.0180481 5.50724
RightShoulder  0.737104 1.34113 7.69291
RightArm  -19.4877 -4.6338 3.01259
RightForeArm  7.6809 3.88698 2.89395
RightHand  -1.14024 4.30461 -13.9347
LeftUpLeg  2.58778 5.68065 2.99384
LeftLeg  3.51379 14.9404 -3.62001
LeftFoot  -3.87777 -0.036335 1.0249
LeftToes  1.06248e-005 4.65854e-005 -8.185e-006
8
root  8.85126 40.8902 0.976458 -175.385 -84.5955 173.447
RightUpLeg  0.647475 -8.55952 -6.57172
RightLeg  5.23825 -2.49047 3.05858
RightFoot  -2.71222 -0.0111216 -0.125548
RightToes  0.000482159 0.542163 -0.142577
Spine  1.85129 0.256278 -2.33763
Spine1  2.70193 0.121211 0.955887
HEad  1.67889 -9.43935 -1.33424
LeftShoulder1  0.749777 -1.65817 -6.80849
LeftArm  -19.9739 14.2949 -8.4589
LeftForeArm  4.36743 -1.13431 -0.320758
LeftHand  -0.25398 0.0180481 5.50724
RightShoulder  0.727241 1.28913 7.64677
RightArm  -19.4879 -4.52492 3.02395
RightForeArm  7.83786 3.7609 2.8759
RightHand  -1.13847 4.32898 -13.8811
LeftUpLeg  2.58247 5.67012 2.96827
LeftLeg  3.53088 15.036 -3.61107
LeftFoot  -3.94341 -0.0360221 1.02004
LeftToes  1.06248e-005 4.65854e-005 -8.185e-006
9
root  8.82784 40.8891 0.988625 -175.621 -84.491 173.711
RightUpLeg  0.635129 -8.55864 -6.57327
RightLeg  5.24188 -2.38531 3.06336
RightFoot  -2.7071 -0.0116167 -0.11786
RightToes  0.000482159 0.542163 -0.142577
Spine  1.90447 0.292003 -2.32088
Spine1  2.68437 0.1467 1.00184
HEad  1.706 -9.47079 -1.36224
LeftShoulder1  0.774823 -1.75851 -7.03319
LeftArm  -19.976 14.3859 -8.30931
LeftForeArm  4.28732 -1.12975 -0.299518
LeftHand  -0.25398 0.0180481 5.50724
RightShoulder  0.715898 1.2665 7.46121
RightArm  -19.447 -4.53115 3.06534
RightForeArm  8.05631 3.71166 2.87276
RightHand  -1.17805 4.66967 -13.8894
LeftUpLeg  2.59396 5.67081 2.95738
LeftLeg  3.55266 15.14 -3.59596
LeftFoot  -4.02353 -0.0345464 0.997097
LeftToes  1.06248e-005 4.65854e-005 -8.185e-006
10
root  8.80221 40.8875 1.00703 -175.999 -84.3659 174.115
RightUpLeg  0.642197 -8.54795 -6.57176
RightLeg  5.20339 -2.2785 3.06801
RightFoot  -2.70929 -0.01355 -0.0878399
RightToes  0.000482159 0.542163 -0.142577
Spine  1.89453 0.353511 -2.22035
Spine1  2.76335 0.207138 1.0011
HEad  1.67309 -9.51489 -1.35397
LeftShoulder1  0.797017 -1.85778 -7.19338
LeftArm  -20.0407 14.446 -8.26887
LeftForeArm  4.30606 -1.10301 -0.256075
LeftHand  -0.25398 0.0180481 5.50724
RightShoulder  0.710537 1.28569 7.26825
RightArm  -19.3229 -4.71201 2.97747
RightForeArm  8.08229 3.84706 2.91481
RightHand  -1.1885 4.82295 -13.8099
LeftUpLeg  2.591 5.68934 2.95564
LeftLeg  3.62154 15.263 -3.57934
LeftFoot  -4.12599 -0.0359553 1.019
LeftToes  1.06248e-005 4.65854e-005 -8.185e-006
11
root  8.77494 40.8833 1.02778 -176.311 -84.2526 174.479
RightUpLeg  0.60772 -8.52057 -6.56812
RightLeg  5.19321 -2.20278 3.05171
RightFoot  -2.74383 -0.017429 -0.0276085
RightToes  0.000482159 0.542163 -0.142577
Spine  1.86599 0.417614 -2.08476
Spine1  2.82966 0.283204 0.934574
HEad  1.79818 -9.55541 -1.33389
LeftShoulder1  0.810933 -1.9275 -7.26796
LeftArm  -20.0832 14.445 -8.25867
LeftForeArm  4.35755 -1.04094 -0.225536
LeftHand  -0.25398 0.0180481 5.50724
RightShoulder  0.702752 1.27428 7.12494
RightArm  -19.1212 -4.93314 2.76593
RightForeArm  7.88082 4.03693 2.99072
RightHand  -1.16132 4.66256 -13.7082
LeftUpLeg  2.54011 5.71912 2.95673
LeftLeg  3.73971 15.3622 -3.57135
LeftFoot  -4.25054 -0.0387858 1.06299
LeftToes  1.06248e-005 4.65854e-005 -8.185e-006
